<svg width="1200" height="500" viewBox="0 0 1200 500" fill="none" xmlns="http://www.w3.org/2000/svg">
<g clip-path="url(#clip0_902_155)">
<rect width="1200" height="500" fill="#F5F5F5"/>
<rect x="63" width="1" height="500" fill="#C8C8C8"/>
<rect x="1136" width="1" height="500" fill="#C8C8C8"/>
<rect x="1200" y="63" width="1" height="1200" transform="rotate(90 1200 63)" fill="#C8C8C8"/>
<rect x="1200" y="436" width="1" height="1200" transform="rotate(90 1200 436)" fill="#C8C8C8"/>
<rect x="58" y="63.6567" width="8" height="8" transform="rotate(-45 58 63.6567)" fill="#C8C8C8"/>
<rect x="58" y="436.657" width="8" height="8" transform="rotate(-45 58 436.657)" fill="#C8C8C8"/>
<rect x="1131" y="436.657" width="8" height="8" transform="rotate(-45 1131 436.657)" fill="#C8C8C8"/>
<rect x="1131" y="63.6567" width="8" height="8" transform="rotate(-45 1131 63.6567)" fill="#C8C8C8"/>
<g clip-path="url(#clip1_902_155)">
<path d="M595.5 186V314.5H531L531 186H595.5Z" fill="#0A0A0A"/>
<path d="M595.5 186V314.5H531L531 186H595.5Z" fill="url(#paint0_linear_902_155)"/>
<path d="M668.5 186V314.5H604L604 186H668.5Z" fill="#0A0A0A"/>
<path d="M668.5 186V314.5H604L604 186H668.5Z" fill="url(#paint1_linear_902_155)"/>
</g>
</g>
<defs>
<linearGradient id="paint0_linear_902_155" x1="563.25" y1="186" x2="563.25" y2="314.5" gradientUnits="userSpaceOnUse">
<stop stop-color="#262626"/>
<stop offset="1" stop-color="#0A0A0A"/>
</linearGradient>
<linearGradient id="paint1_linear_902_155" x1="636.25" y1="186" x2="636.25" y2="314.5" gradientUnits="userSpaceOnUse">
<stop stop-color="#262626"/>
<stop offset="1" stop-color="#0A0A0A"/>
</linearGradient>
<clipPath id="clip0_902_155">
<rect width="1200" height="500" fill="white"/>
</clipPath>
<clipPath id="clip1_902_155">
<rect width="137.5" height="128.5" fill="white" transform="translate(531 186)"/>
</clipPath>
</defs>
</svg>
