<svg width="1200" height="500" viewBox="0 0 1200 500" fill="none" xmlns="http://www.w3.org/2000/svg">
<g clip-path="url(#clip0_713_189)">
<rect width="1200" height="500" fill="#F5F5F5"/>
<rect x="63" width="1" height="500" fill="#0A0A0A" fill-opacity="0.25"/>
<rect x="1136" width="1" height="500" fill="#0A0A0A" fill-opacity="0.25"/>
<rect x="1200" y="63" width="1" height="1200" transform="rotate(90 1200 63)" fill="#0A0A0A" fill-opacity="0.25"/>
<rect x="1200" y="436" width="1" height="1200" transform="rotate(90 1200 436)" fill="#0A0A0A" fill-opacity="0.25"/>
<rect x="59.5" y="59.5" width="8" height="8" rx="4" stroke="#0A0A0A" stroke-opacity="0.25"/>
<rect x="59.5" y="432.5" width="8" height="8" rx="4" stroke="#0A0A0A" stroke-opacity="0.25"/>
<rect x="1132.5" y="432.5" width="8" height="8" rx="4" stroke="#0A0A0A" stroke-opacity="0.25"/>
<rect x="1132.5" y="59.5" width="8" height="8" rx="4" stroke="#0A0A0A" stroke-opacity="0.25"/>
<path d="M536.076 120.005C570.636 120.443 598.518 148.595 598.518 183.259L598.512 184.076C598.074 218.636 569.923 246.518 535.259 246.518L534.441 246.512C500.153 246.078 472.439 218.364 472.005 184.076L472 183.259C472 148.322 500.322 120 535.259 120L536.076 120.005ZM535.259 120.494C500.595 120.494 472.494 148.595 472.494 183.259C472.494 217.923 500.595 246.023 535.259 246.023C569.923 246.023 598.023 217.923 598.023 183.259C598.023 148.595 569.923 120.494 535.259 120.494ZM535.872 135.818C561.792 136.147 582.702 157.261 582.702 183.259L582.698 183.872C582.37 209.792 561.256 230.702 535.259 230.702L534.646 230.698C508.93 230.373 488.144 209.588 487.818 183.872L487.814 183.259C487.815 157.056 509.056 135.815 535.259 135.814L535.872 135.818ZM535.259 136.309C509.329 136.309 488.309 157.329 488.309 183.259C488.309 209.188 509.329 230.208 535.259 230.208C561.188 230.208 582.208 209.188 582.208 183.259C582.208 157.329 561.188 136.309 535.259 136.309Z" fill="#0A0A0A"/>
<path d="M665.559 120.005C700.119 120.443 728 148.595 728 183.259L727.994 184.076C727.556 218.636 699.405 246.518 664.741 246.518L663.924 246.512C629.636 246.078 601.922 218.364 601.487 184.076L601.482 183.259C601.482 148.322 629.804 120 664.741 120L665.559 120.005ZM664.741 120.494C630.077 120.494 601.977 148.595 601.977 183.259C601.977 217.923 630.077 246.023 664.741 246.023C699.405 246.023 727.506 217.923 727.506 183.259C727.506 148.595 699.405 120.494 664.741 120.494ZM665.354 135.818C691.274 136.147 712.184 157.261 712.185 183.259L712.181 183.872C711.852 209.792 690.739 230.702 664.741 230.702L664.128 230.698C638.412 230.372 617.627 209.588 617.301 183.872L617.297 183.259C617.297 157.056 638.539 135.815 664.741 135.814L665.354 135.818ZM664.741 136.309C638.812 136.309 617.791 157.329 617.791 183.259C617.791 209.188 638.812 230.208 664.741 230.208C690.671 230.208 711.69 209.188 711.69 183.259C711.69 157.329 690.671 136.309 664.741 136.309ZM662.464 147.396C662.696 144.602 666.786 144.602 667.019 147.396C667.223 149.857 670.644 150.29 671.454 147.957C672.374 145.308 676.335 146.326 675.865 149.09C675.452 151.524 678.658 152.793 680.022 150.735C681.572 148.399 685.156 150.369 684.014 152.93C683.007 155.185 685.797 157.211 687.631 155.558C689.713 153.68 692.693 156.479 690.95 158.675C689.415 160.609 691.613 163.266 693.8 162.12C696.284 160.819 698.475 164.272 696.24 165.966C694.273 167.457 695.741 170.577 698.145 170.011C700.874 169.369 702.137 173.258 699.552 174.343C697.275 175.298 697.921 178.685 700.39 178.734C703.193 178.791 703.449 182.872 700.676 183.279C698.233 183.638 698.016 187.08 700.395 187.742C703.096 188.494 702.329 192.511 699.541 192.216C697.086 191.956 696.02 195.235 698.159 196.468C700.589 197.868 698.848 201.568 696.221 200.589C693.907 199.726 692.059 202.637 693.825 204.363C695.83 206.323 693.223 209.475 690.922 207.873C688.895 206.462 686.381 208.823 687.662 210.934C689.117 213.331 685.808 215.734 683.978 213.61C682.366 211.74 679.345 213.401 680.061 215.764C680.873 218.447 677.07 219.953 675.825 217.44C674.729 215.228 671.39 216.086 671.495 218.553C671.615 221.354 667.557 221.866 666.977 219.123C666.465 216.708 663.017 216.708 662.506 219.123C661.925 221.866 657.868 221.354 657.987 218.553C658.093 216.086 654.752 215.228 653.656 217.44C652.412 219.953 648.609 218.447 649.422 215.764C650.137 213.401 647.116 211.74 645.504 213.61C643.674 215.734 640.365 213.331 641.819 210.934C643.1 208.823 640.587 206.462 638.561 207.873C636.259 209.475 633.652 206.323 635.657 204.363C637.423 202.637 635.575 199.726 633.262 200.589C630.635 201.568 628.893 197.868 631.322 196.468C633.462 195.235 632.397 191.956 629.941 192.216C627.153 192.511 626.387 188.494 629.088 187.742C631.467 187.08 631.25 183.638 628.807 183.279C626.033 182.872 626.29 178.791 629.093 178.734C631.562 178.685 632.208 175.298 629.931 174.343C627.345 173.258 628.609 169.368 631.338 170.011C633.741 170.577 635.209 167.457 633.241 165.966C631.007 164.272 633.198 160.819 635.682 162.12C637.869 163.266 640.068 160.609 638.532 158.675C636.789 156.479 639.769 153.68 641.852 155.558C643.685 157.211 646.475 155.185 645.469 152.93C644.326 150.369 647.91 148.399 649.46 150.735C650.825 152.793 654.031 151.524 653.617 149.09C653.147 146.326 657.108 145.308 658.028 147.957C658.838 150.29 662.259 149.857 662.464 147.396Z" fill="#0A0A0A"/>
<path d="M536.076 249.487C570.636 249.925 598.518 278.077 598.518 312.741L598.512 313.559C598.074 348.119 569.923 376 535.259 376L534.441 375.994C500.153 375.56 472.439 347.847 472.005 313.559L472 312.741C472 277.805 500.322 249.483 535.259 249.483L536.076 249.487ZM535.259 249.977C500.595 249.977 472.494 278.078 472.494 312.741C472.494 347.405 500.595 375.506 535.259 375.506C569.923 375.506 598.023 347.405 598.023 312.741C598.023 278.078 569.923 249.977 535.259 249.977ZM535.872 265.301C561.792 265.629 582.702 286.744 582.702 312.741L582.698 313.355C582.37 339.274 561.256 360.185 535.259 360.185L534.646 360.181C508.93 359.855 488.144 339.07 487.818 313.355L487.814 312.741C487.815 286.539 509.056 265.297 535.259 265.297L535.872 265.301ZM535.259 265.791C509.329 265.791 488.309 286.812 488.309 312.741C488.309 338.671 509.329 359.691 535.259 359.691C561.188 359.69 582.208 338.671 582.208 312.741C582.208 286.812 561.188 265.791 535.259 265.791ZM532.487 288.39C533.457 285.843 537.06 285.843 538.029 288.39L543.508 302.777C543.809 303.567 544.433 304.191 545.224 304.492L559.61 309.97C562.157 310.94 562.157 314.543 559.61 315.513L545.224 320.99C544.433 321.291 543.809 321.916 543.508 322.706L538.029 337.093C537.06 339.64 533.457 339.64 532.487 337.093L527.01 322.706C526.709 321.916 526.083 321.291 525.293 320.99L510.907 315.513C508.36 314.543 508.36 310.94 510.907 309.97L525.293 304.492C526.083 304.191 526.709 303.567 527.01 302.777L532.487 288.39Z" fill="#0A0A0A"/>
<path d="M665.559 249.487C700.119 249.925 728 278.077 728 312.741L727.994 313.559C727.556 348.119 699.405 376 664.741 376L663.924 375.994C629.636 375.56 601.922 347.847 601.487 313.559L601.482 312.741C601.482 277.805 629.804 249.483 664.741 249.483L665.559 249.487ZM664.741 249.977C630.077 249.977 601.977 278.078 601.977 312.741C601.977 347.405 630.077 375.506 664.741 375.506C699.405 375.506 727.506 347.405 727.506 312.741C727.506 278.078 699.405 249.977 664.741 249.977ZM665.354 265.301C691.274 265.629 712.184 286.744 712.185 312.741L712.181 313.355C711.852 339.274 690.739 360.185 664.741 360.185L664.128 360.181C638.412 359.855 617.627 339.07 617.301 313.355L617.297 312.741C617.297 286.539 638.539 265.297 664.741 265.297L665.354 265.301ZM664.741 265.791C638.812 265.791 617.791 286.812 617.791 312.741C617.791 338.671 638.812 359.69 664.741 359.691C690.671 359.69 711.69 338.671 711.69 312.741C711.69 286.812 690.671 265.791 664.741 265.791Z" fill="#0A0A0A"/>
</g>
<defs>
<clipPath id="clip0_713_189">
<rect width="1200" height="500" fill="white"/>
</clipPath>
</defs>
</svg>
